<svg width="113" height="31" viewBox="0 0 113 31" fill="none" xmlns="http://www.w3.org/2000/svg">
<path fill-rule="evenodd" clip-rule="evenodd" d="M7.66113 1.13014C7.63548 0.874736 7.62119 0.613909 7.61826 0.347656H14.8486C16.0847 0.371153 17.1495 0.811862 18.0431 1.66978L18.1342 1.76152C19.0704 2.7005 19.5384 3.83556 19.5384 5.16668C19.5384 5.83963 19.4187 6.46202 19.1793 7.03384C19.1392 7.13726 19.0946 7.23799 19.0453 7.33604C18.9096 7.60227 18.747 7.8595 18.5576 8.10774C18.5448 8.1238 18.5323 8.13999 18.5201 8.1563C18.4012 8.30116 18.2726 8.44327 18.1342 8.58262C17.586 9.13458 16.9696 9.52492 16.285 9.75365C16.4951 9.37924 16.6255 8.97091 16.6763 8.52866C16.6913 8.41349 16.7003 8.29477 16.7031 8.17249V8.08075C16.7031 7.99648 16.7013 7.91373 16.6978 7.83252C16.6934 7.76665 16.688 7.70189 16.6817 7.63825C16.6745 7.60587 16.6692 7.57349 16.6656 7.54111C16.6536 7.4604 16.6393 7.38125 16.6227 7.30367C16.5446 7.50291 16.4464 7.69359 16.3279 7.87569C16.1913 8.09242 16.0269 8.29748 15.8348 8.49088L15.7598 8.56643C14.5239 8.55135 13.3876 8.29772 12.351 7.80553C11.5884 7.43807 10.8792 6.9416 10.2231 6.31612C10.2188 6.31207 10.2135 6.30668 10.207 6.29993C10.2126 6.30846 10.2162 6.31565 10.2178 6.32151C10.2588 6.39236 10.3016 6.46251 10.3464 6.53198C10.6465 6.99607 11.1682 7.58968 11.9115 8.3128C12.4001 8.78505 12.8057 9.18258 13.1281 9.50541C13.2434 9.62329 13.3471 9.73122 13.439 9.8292C13.6104 10.0034 13.7462 10.1473 13.8463 10.2609C14.1411 10.5964 14.4091 10.9364 14.6503 11.2808C15.01 11.7862 15.3137 12.3007 15.5615 12.8242L15.5829 12.8674C16.2816 14.1228 16.7372 15.4773 16.9497 16.9309C17.0426 17.5705 17.089 18.2289 17.089 18.906C17.089 21.0712 16.612 23.0373 15.6579 24.8043C15.589 24.9322 15.5176 25.0581 15.4436 25.1821L15.4114 25.2414C15.3519 25.341 15.2912 25.44 15.2292 25.5382C14.7311 26.3188 14.1343 27.0581 13.439 27.7562C12.0368 29.1721 10.4646 30.1776 8.72237 30.7728C9.36478 29.032 9.73997 27.1792 9.84793 25.2144C10.7203 25.4015 11.6296 25.4951 12.5761 25.4951C13.3238 25.4951 14.0474 25.4357 14.7468 25.317C14.7997 25.3103 14.8515 25.3013 14.9022 25.29C14.8514 25.2964 14.7996 25.3018 14.7468 25.3062C14.4054 25.3314 14.0588 25.344 13.707 25.344C12.7351 25.344 11.8043 25.2504 10.9145 25.0633C10.5604 24.9868 10.212 24.8951 9.86937 24.7881C7.94585 24.1898 6.21642 23.1177 4.68109 21.5718C2.19057 19.0679 0.945312 16.0423 0.945312 12.495C0.945312 10.9122 1.19186 9.43534 1.68496 8.06456C1.79921 7.74943 1.92606 7.44004 2.06551 7.13638C2.15135 6.94514 2.24247 6.75627 2.33886 6.56975C2.43232 6.39499 2.53058 6.2223 2.63365 6.05169C3.18035 5.10911 3.86283 4.2259 4.68109 3.40204C4.94449 3.13722 5.21248 2.88539 5.48506 2.64654L5.75305 2.42528C6.26143 2.01014 6.78848 1.64138 7.33419 1.31902C7.44258 1.2551 7.55157 1.19214 7.66113 1.13014ZM15.6365 3.36427C15.6194 3.33987 15.5998 3.31649 15.5776 3.29411C15.5126 3.22874 15.4412 3.17837 15.3632 3.14301C15.2735 3.10344 15.1752 3.08365 15.0684 3.08365C14.8683 3.08365 14.6968 3.15381 14.5538 3.29411C14.4145 3.43802 14.3448 3.6107 14.3448 3.81217C14.3448 4.01364 14.4145 4.18452 14.5538 4.32483C14.6968 4.46874 14.8683 4.54069 15.0684 4.54069C15.2685 4.54069 15.4382 4.46874 15.5776 4.32483C15.7205 4.18452 15.7919 4.01364 15.7919 3.81217C15.7919 3.64203 15.7401 3.49273 15.6365 3.36427ZM79.8081 8.18088C79.5418 9.04647 79.0878 9.79101 78.4462 10.4145C77.8106 11.0198 77.172 11.3225 76.5303 11.3225C75.8887 11.3225 75.4347 11.0198 75.1684 10.4145C74.8899 9.79101 74.8809 9.04647 75.1411 8.18088C75.4075 7.31528 75.8615 6.57982 76.5031 5.97451C77.1447 5.35709 77.7833 5.04838 78.4189 5.04838C79.0605 5.04838 79.5236 5.35709 79.8081 5.97451C80.0684 6.57982 80.0684 7.31528 79.8081 8.18088ZM39.1129 1.62533C40.3356 1.43769 41.5674 1.62533 42.8083 2.18827C44.0189 2.75727 44.8391 3.7863 45.2689 5.27537C45.7047 6.76444 45.5746 8.081 44.8785 9.22504C44.4971 9.83035 43.9766 10.2753 43.3168 10.5598C42.6388 10.8624 41.9518 10.9381 41.2557 10.7868C40.953 10.7081 40.7079 10.5931 40.5202 10.4417C40.2781 10.2722 40.1389 10.0362 40.1026 9.73351C40.0057 9.22504 40.1843 8.92541 40.6383 8.83461C41.1649 8.71961 41.5402 8.43511 41.7641 7.98113C41.8973 7.70268 41.9911 7.24264 42.0456 6.60101C42.088 6.16518 42.0426 5.7687 41.9094 5.41157C41.7399 5.01811 41.4554 4.70638 41.0559 4.47636C40.6988 4.27055 40.2842 4.19792 39.812 4.25845C39.3459 4.31293 38.9131 4.49149 38.5136 4.79415C37.8962 5.28445 37.4816 5.92306 37.2697 6.70997C37.0457 7.53925 37.0942 8.35037 37.415 9.14333C37.7176 9.8576 38.1141 10.6869 38.6044 11.6312C38.6226 11.6675 39.0463 12.4786 39.8756 14.0645C40.384 15.0028 40.7775 15.8956 41.0559 16.743C41.2678 17.3847 41.4191 18.0263 41.5099 18.6679C41.5462 18.9706 41.5765 19.2732 41.6007 19.5759C41.6552 20.8168 41.4645 21.9094 41.0287 22.8537C40.9379 23.0595 40.8259 23.2653 40.6927 23.4711C39.9179 24.6394 38.7497 25.4414 37.188 25.8772C36.8672 25.9499 36.4798 26.0164 36.0258 26.077C35.5778 26.1314 35.2873 26.1678 35.1541 26.1859C34.1009 26.1859 33.205 26.0921 32.4665 25.9045C31.6554 25.6987 30.929 25.3597 30.2874 24.8875C29.5913 24.3791 29.0828 23.7011 28.762 22.8537C28.4412 22.0244 28.3867 21.2133 28.5986 20.4203C28.8407 19.4579 29.2826 18.6861 29.9242 18.105C30.5658 17.536 31.3679 17.197 32.3303 17.0881C32.7238 17.0517 33.1384 17.0971 33.5743 17.2243C33.8345 17.303 34.0313 17.4452 34.1644 17.651C34.2976 17.8568 34.3551 18.102 34.337 18.3865C34.3127 18.6528 34.228 18.8495 34.0827 18.9766C33.9496 19.0917 33.7316 19.1764 33.429 19.2309C33.0355 19.2914 32.7419 19.4427 32.5482 19.6849C32.3606 19.933 32.2668 20.2629 32.2668 20.6745C32.2668 21.1649 32.3818 21.5795 32.6118 21.9185C32.8539 22.2574 33.202 22.4754 33.656 22.5722C34.6911 22.8143 35.5748 22.5783 36.3072 21.864C37.0457 21.1497 37.2152 20.1782 36.8157 18.9494C36.6462 18.4591 36.3829 17.8205 36.0258 17.0336C35.5778 16.0711 35.2964 15.4386 35.1814 15.1359C34.6911 14.0222 34.3339 13.1929 34.11 12.6481C33.6923 11.6675 33.4078 10.82 33.2565 10.1058C32.9538 8.71355 33.0022 7.43332 33.4017 6.26506C33.7952 5.05443 34.5488 4.01632 35.6626 3.15072C36.7764 2.30328 37.9265 1.79482 39.1129 1.62533ZM107.755 15.7897C107.852 15.7473 107.946 15.7261 108.037 15.7261C109.018 15.5203 109.829 15.0512 110.47 14.3188C110.64 14.0887 110.876 13.9949 111.178 14.0373C111.445 14.0554 111.681 14.1765 111.887 14.4005C112.074 14.6063 112.195 14.8514 112.25 15.1359C112.286 15.4204 112.241 15.6656 112.114 15.8714C111.303 17.0215 110.228 17.8205 108.89 18.2684H108.863C108.694 18.329 108.533 18.3865 108.382 18.4409C108.267 18.4409 108.173 18.4591 108.1 18.4954C107.913 18.5378 107.722 18.5771 107.528 18.6135C107.51 18.5953 107.501 18.5953 107.501 18.6135C107.392 18.6135 107.289 18.6316 107.192 18.6679H107.165C106.826 18.7043 106.487 18.7315 106.148 18.7497C106.13 18.8102 106.112 18.8586 106.094 18.8949C106.015 19.1976 105.921 19.5002 105.812 19.8029C105.207 21.4009 104.284 22.8022 103.043 24.0068C102.062 24.9329 101.073 25.5564 100.074 25.8772C99.5655 26.0467 99.045 26.1315 98.5123 26.1315C96.9869 26.1315 95.8943 25.4232 95.2345 24.0068C95.0469 23.6315 94.9077 23.2381 94.8169 22.8264C94.605 23.1473 94.3689 23.4772 94.1086 23.8161C92.9041 25.2628 91.4543 26.0043 89.7595 26.0407C89.1723 26.0407 88.567 25.8348 87.9435 25.4232C86.8721 24.6908 86.1942 23.4741 85.9097 21.7732C84.7414 23.6255 83.5913 24.8784 82.4594 25.5322C82.0659 25.7804 81.6906 25.9317 81.3335 25.9862H80.934C80.2379 26.0467 79.5781 25.7743 78.9546 25.169C78.4885 24.715 78.0557 24.1127 77.6562 23.3621C76.8451 24.4517 75.9704 25.2326 75.0322 25.7047C74.6145 25.8923 74.209 26.0164 73.8155 26.077H73.3615C71.5153 25.9801 70.3017 24.7816 69.7206 22.4814C69.6237 22.1061 69.548 21.7217 69.4936 21.3283V21.183C69.2635 21.5583 69.0184 21.9245 68.7581 22.2817C68.3041 22.8688 67.7775 23.4257 67.1782 23.9523C65.5378 25.3445 63.8218 26.0407 62.03 26.0407C60.2202 26.0407 58.8733 25.3445 57.9896 23.9523C57.7232 23.5407 57.5144 23.1079 57.3631 22.6539C57.0059 23.1624 56.6579 23.6133 56.3189 24.0068C55.2475 25.2174 54.0702 25.8591 52.7869 25.9317C51.5036 26.0285 50.4504 25.3506 49.6272 23.8978C49.379 23.4802 49.1702 23.0171 49.0007 22.5087L48.9734 22.545C48.6163 23.0716 48.2501 23.5498 47.8748 23.9796C47.3058 24.6575 46.7489 25.166 46.2041 25.505C45.6957 25.8076 45.2326 25.9499 44.8149 25.9317C44.2883 26.0043 43.7344 25.9014 43.1533 25.623C42.3785 25.2658 41.7944 24.6636 41.401 23.8161C41.9457 21.9457 42.085 20.1358 41.8186 18.3865C41.8005 18.2715 41.7823 18.1595 41.7641 18.0505C41.9336 17.6328 42.1334 17.2182 42.3634 16.8066C43.4711 14.7909 44.9118 13.3472 46.6853 12.4756C48.5316 11.5737 50.0388 11.4435 51.207 12.0851C51.6187 12.3091 51.9395 12.6087 52.1695 12.984C52.3753 13.3049 52.451 13.5803 52.3965 13.8103C52.2996 14.2824 52.1846 14.5548 52.0515 14.6275C51.8456 14.7788 51.4401 14.7122 50.8348 14.4277C50.1387 14.0887 49.4244 14.1735 48.692 14.6819C47.8627 15.2509 47.0909 16.2981 46.3766 17.8235C45.5655 19.5184 45.2265 20.7896 45.3597 21.637C45.4142 22.0123 45.5716 22.1727 45.8319 22.1182C46.1527 22.0395 46.5582 21.6915 47.0485 21.0741C49.1248 18.5499 50.3112 17.079 50.6078 16.6613C50.9468 16.2255 51.2888 15.9349 51.6338 15.7897C52.1604 15.596 52.7234 15.7352 53.3226 16.2073C53.9098 16.6613 54.1549 17.1789 54.0581 17.76C54.0036 18.0989 53.8069 18.7678 53.4679 19.7666C53.2015 20.9348 53.1077 21.6249 53.1864 21.8368C53.3196 22.2665 53.9128 22.088 54.966 21.301C55.983 20.5444 57.1331 18.7618 58.4163 15.9531C59.0519 14.5246 59.8328 12.5482 60.7589 10.0241C61.2492 8.70448 61.57 7.82677 61.7213 7.39095C61.9816 6.71299 62.254 5.94122 62.5385 5.07562C62.9138 3.88921 63.2528 3.22941 63.5554 3.09624C63.9731 2.94491 64.6329 3.39587 65.5348 4.44912C65.9888 4.95758 66.1946 5.59922 66.1522 6.37402C66.1159 6.97933 65.9192 7.76018 65.5621 8.71658C65.3381 9.30373 64.9719 10.2087 64.4634 11.4314C64.3847 11.5827 64.3272 11.725 64.2909 11.8582C64.1214 12.2698 63.9792 12.6572 63.8641 13.0204C65.1656 11.9429 66.4761 11.4617 67.7957 11.5767C69.1879 11.6675 70.1776 12.4029 70.7647 13.7831C70.9524 14.2128 71.0825 14.6819 71.1552 15.1904C71.3065 16.2073 71.1945 17.3302 70.8192 18.559C70.7224 18.898 70.6104 19.2157 70.4833 19.5124C71.2338 18.4773 71.6182 17.2727 71.6364 15.8986C71.6364 15.4628 71.6091 15.0391 71.5547 14.6275C71.93 14.0222 72.2508 13.4743 72.5171 12.984C72.9287 12.2698 73.2283 11.8763 73.416 11.8037C73.7005 11.6887 74.2574 11.837 75.0867 12.2486C75.8796 12.6481 76.2277 13.1959 76.1308 13.892C76.1127 14.1765 76.0098 14.5548 75.8221 15.027C75.7253 15.3054 75.5467 15.7655 75.2864 16.4071C74.4027 18.8768 73.9396 20.1661 73.8972 20.275C73.4493 21.8065 73.534 22.4663 74.1515 22.2544C75.0413 21.976 75.7949 21.4675 76.4123 20.729C76.8481 20.2206 77.3384 19.4306 77.8832 18.3592C78.5612 17.0396 79.0333 16.1619 79.2996 15.7261C79.9231 14.7697 80.6374 13.9979 81.4425 13.4108C83.5368 11.8672 85.2801 11.3225 86.6724 11.7764C87.429 12.0186 88.0434 12.5361 88.5155 13.3291C88.8908 12.3485 89.3055 11.2468 89.7595 10.0241C90.2437 8.70448 90.5615 7.82677 90.7128 7.39095C90.9792 6.71299 91.2546 5.94122 91.5391 5.07562C91.9144 3.88921 92.2534 3.22941 92.556 3.09624C92.9676 2.94491 93.6274 3.39587 94.5354 4.44912C95.1952 5.20576 95.3344 6.28927 94.9531 7.69965C94.8199 8.18996 94.5838 8.84975 94.2448 9.67903C93.6637 11.1136 93.3732 11.84 93.3732 11.8582C93.2582 12.1608 92.9767 13.0264 92.5288 14.455C91.9598 16.2467 91.4301 18.0081 90.9398 19.7393L90.8309 20.3931C90.7703 20.8834 90.7703 21.2708 90.8309 21.5553C91.0185 22.4572 91.7721 22.203 93.0917 20.7926C94.1813 19.6001 95.0378 18.4107 95.6613 17.2243C95.6976 17.1879 95.7248 17.1425 95.743 17.0881C96.0093 16.5796 96.2636 16.1256 96.5057 15.7261C96.9778 15.03 97.5256 14.3823 98.1491 13.7831C99.505 12.4998 100.879 11.8007 102.271 11.6856H102.644C103.679 11.6856 104.517 12.0065 105.159 12.6481C105.461 12.9507 105.725 13.3291 105.949 13.7831C106.173 14.2915 106.333 14.8272 106.43 15.3902C106.315 15.4083 106.182 15.4174 106.03 15.4174C105.582 15.4537 105.083 15.4537 104.532 15.4174L105.304 15.6444H105.331C105.725 15.717 106.109 15.7745 106.484 15.8169H106.911H107.22C107.389 15.7987 107.559 15.7897 107.728 15.7897H107.755ZM103.515 15.2812C103.515 14.4882 103.207 14.0918 102.589 14.0918C101.966 14.0918 101.203 14.4882 100.301 15.2812C99.393 16.0863 98.6182 17.0548 97.9766 18.1867C97.341 19.3368 97.0111 20.3083 96.9869 21.1013C96.9869 21.9124 97.2986 22.318 97.9221 22.318C98.5456 22.318 99.3083 21.9124 100.21 21.1013C100.289 21.0408 100.365 20.9833 100.437 20.9288C100.982 20.4022 101.481 19.809 101.935 19.1492C102.014 19.0342 102.09 18.9222 102.162 18.8132C102.259 18.6437 102.362 18.4742 102.471 18.3047C102.211 18.1716 101.987 17.99 101.799 17.76C101.648 17.5542 101.551 17.3574 101.509 17.1698C101.454 16.9095 101.484 16.6553 101.599 16.4071C101.787 15.9349 102.171 15.605 102.753 15.4174C103.001 15.3266 103.255 15.2812 103.515 15.2812ZM85.6554 18.2412L86.7632 16.6341C87.3987 15.484 87.4926 14.7667 87.0446 14.4822C86.518 14.1432 85.8582 14.2189 85.0653 14.7092C84.3086 15.1813 83.6307 15.8986 83.0314 16.8611C82.4261 17.8235 81.9812 18.907 81.6967 20.1116C81.4182 21.3525 81.4848 22.0214 81.8964 22.1182C82.5744 22.2695 83.8274 20.9772 85.6554 18.2412ZM64.6268 15.2812C63.7249 16.0863 62.9532 17.0548 62.3115 18.1867C61.6699 19.3368 61.34 20.3083 61.3218 21.1013C61.3218 21.9124 61.6336 22.318 62.257 22.318C62.8805 22.318 63.6432 21.9124 64.5451 21.1013C65.447 20.3083 66.2188 19.3368 66.8605 18.1867C67.5021 17.0548 67.832 16.0863 67.8501 15.2812C67.8501 14.4882 67.5384 14.0918 66.9149 14.0918C66.2975 14.0918 65.5348 14.4882 64.6268 15.2812Z" fill="url(#paint0_linear)"/>
<defs>
<linearGradient id="paint0_linear" x1="2.7729" y1="4.86733" x2="112.262" y2="4.86733" gradientUnits="userSpaceOnUse">
<stop stop-color="#9441D5"/>
<stop offset="1" stop-color="#2573D5"/>
</linearGradient>
</defs>
</svg>
